<?xml version="1.0" encoding="UTF-8" standalone="no"?>
<!-- Created with Inkscape (http://www.inkscape.org/) -->

<svg
   xmlns:dc="http://purl.org/dc/elements/1.1/"
   xmlns:cc="http://creativecommons.org/ns#"
   xmlns:rdf="http://www.w3.org/1999/02/22-rdf-syntax-ns#"
   xmlns:svg="http://www.w3.org/2000/svg"
   xmlns="http://www.w3.org/2000/svg"
   xmlns:sodipodi="http://sodipodi.sourceforge.net/DTD/sodipodi-0.dtd"
   xmlns:inkscape="http://www.inkscape.org/namespaces/inkscape"
   version="1.1"
   id="svg2"
   width="807"
   height="205"
   viewBox="0 0 807 205"
   sodipodi:docname="itcodefair_logo.svg"
   inkscape:version="0.92.1 r">
  <metadata
     id="metadata8">
    <rdf:RDF>
      <cc:Work
         rdf:about="">
        <dc:format>image/svg+xml</dc:format>
        <dc:type
           rdf:resource="http://purl.org/dc/dcmitype/StillImage" />
        <dc:title></dc:title>
      </cc:Work>
    </rdf:RDF>
  </metadata>
  <defs
     id="defs6" />
  <sodipodi:namedview
     pagecolor="#ffffff"
     bordercolor="#666666"
     borderopacity="1"
     objecttolerance="10"
     gridtolerance="10"
     guidetolerance="10"
     inkscape:pageopacity="0"
     inkscape:pageshadow="2"
     inkscape:window-width="1472"
     inkscape:window-height="761"
     id="namedview4"
     showgrid="false"
     inkscape:zoom="1.2267032"
     inkscape:cx="258.0026"
     inkscape:cy="181.58443"
     inkscape:window-x="2249"
     inkscape:window-y="309"
     inkscape:window-maximized="0"
     inkscape:current-layer="svg2">
    <sodipodi:guide
       position="0,0"
       orientation="0,807"
       id="guide3686"
       inkscape:locked="false" />
    <sodipodi:guide
       position="807,0"
       orientation="-205,0"
       id="guide3688"
       inkscape:locked="false" />
    <sodipodi:guide
       position="807,205"
       orientation="0,-807"
       id="guide3690"
       inkscape:locked="false" />
    <sodipodi:guide
       position="0,205"
       orientation="205,0"
       id="guide3692"
       inkscape:locked="false" />
  </sodipodi:namedview>
  <g
     id="g4519"
     transform="translate(5.0366586,0.728059)">
    <path
       style="fill:#98afca"
       d="m 572,176.13551 c 0,-2.00392 59.18507,-143.134601 61.59844,-146.88551 1.27497,-1.981593 2.2837,-2.25 8.456,-2.25 4.76183,0 7.16535,0.409185 7.49818,1.276523 0.40676,1.060016 -59.40918,144.588757 -61.87668,148.473477 -0.51886,0.81687 -3.37229,1.25 -8.23496,1.25 C 572.84693,178 572,177.78778 572,176.13551 Z M 396.75,169.9199 c -1.60044,-0.93217 -1.75,-3.40181 -1.75,-28.89816 0,-24.01111 0.21801,-28.0969 1.57143,-29.45031 1.26548,-1.26548 4.07265,-1.57143 14.41821,-1.57143 7.06573,0 13.55859,0.27314 14.42857,0.60699 1.86423,0.71537 2.09623,4.47857 0.38179,6.19301 -0.77856,0.77856 -4.83056,1.2 -11.53753,1.2 h -10.33752 l 0.28752,9.25 0.28753,9.25 9.89541,0.5 c 10.33465,0.52219 12.71867,1.65437 11.29512,5.36408 -0.51648,1.34594 -2.21417,1.63592 -9.57736,1.63592 -4.92228,0 -9.6614,0.27314 -10.53138,0.60699 -1.31933,0.50627 -1.58179,2.57452 -1.58179,12.46482 0,10.70003 -0.18886,11.9589 -1.93426,12.89301 -2.36332,1.26481 -3.07744,1.25877 -5.31574,-0.0449 z m 41.75,-0.47607 c -4.83191,-2.48658 -6.45295,-5.32081 -6.47776,-11.32575 -0.0201,-4.86228 0.31362,-5.69868 3.4562,-8.66251 C 439.14258,145.99983 445.59497,144 453.08061,144 c 4.68694,0 5.59141,-1.43371 3.98163,-6.31142 -1.91512,-5.80287 -8.11267,-7.20957 -15.99972,-3.63157 -5.37514,2.43846 -7.30893,1.93212 -6.87949,-1.80132 0.68497,-5.95502 15.47395,-9.2704 24.17797,-5.4202 6.94807,3.07346 7.639,5.43099 7.639,26.065 0,16.31721 -0.0796,16.98999 -2.08508,17.62651 -1.39148,0.44164 -2.80522,-7.9e-4 -4.25,-1.33005 -2.13623,-1.96543 -2.2111,-1.96668 -5.64932,-0.0944 -4.22428,2.30035 -11.40195,2.45822 -15.5156,0.34127 z m 14.52002,-6.95418 c 4.7874,-2.47566 6.72281,-8.79834 3.50955,-11.46511 -2.3102,-1.91729 -11.34949,-0.29553 -14.19108,2.54606 -6.38034,6.38034 2.02258,13.39677 10.68153,8.91905 z M 480.75,169.9199 c -1.57375,-0.91662 -1.75,-3.02036 -1.75,-20.8878 0,-10.92769 0.27314,-20.58033 0.60699,-21.45031 C 479.99008,126.58346 481.42607,126 483.5,126 c 2.07393,0 3.50992,0.58346 3.89301,1.58179 0.33385,0.86998 0.60699,10.52915 0.60699,21.46481 0,18.63432 -0.12148,19.94805 -1.93426,20.91822 -2.36332,1.26481 -3.07744,1.25877 -5.31574,-0.0449 z m 22,0 c -1.57375,-0.91662 -1.75,-3.02036 -1.75,-20.8878 0,-10.92769 0.27314,-20.58033 0.60699,-21.45031 0.92616,-2.41354 6.44775,-2.08845 7.10326,0.41821 0.64976,2.48467 0.45778,2.50432 4.88489,-0.5 6.35854,-4.31502 12.89345,-2.68709 12.24065,3.04931 -0.3142,2.76094 -0.61388,2.95069 -4.66031,2.95069 -3.71616,0 -4.8064,0.52547 -7.75,3.73531 L 510,140.97063 v 13.9795 c 0,12.79767 -0.16352,14.06702 -1.93426,15.01469 -2.36332,1.26481 -3.07744,1.25877 -5.31574,-0.0449 z M 173.66667,169.33333 C 173.3,168.96667 173,166.72524 173,164.35239 c 0,-4.6636 -0.26455,-4.47463 8.14952,-5.82124 2.00723,-0.32124 4.25723,-1.31633 5,-2.21131 C 187.24817,154.99605 187.5,144.21402 187.5,98.5 c 0,-45.714015 -0.25183,-56.496051 -1.35048,-57.819843 -0.74277,-0.894978 -2.99277,-1.892789 -5,-2.217358 -7.29959,-1.180341 -8.29663,-2.022086 -7.95679,-6.717454 L 173.5,27.5 203.20689,27.235186 c 29.16923,-0.260022 29.72697,-0.227288 30.81657,1.808651 0.61033,1.140407 0.82541,3.367757 0.47797,4.949668 -0.47722,2.17275 -1.34952,3.014423 -3.56658,3.441348 -1.61417,0.310831 -4.28859,0.826724 -5.94317,1.146429 -1.65457,0.319705 -3.56707,1.557205 -4.25,2.75 C 219.79488,42.984971 219.5,56.323972 219.5,97.5 c 0,29.7 0.32671,55.16035 0.72602,56.57856 0.81404,2.89114 4.42361,4.92144 8.7496,4.92144 5.05498,0 7.48141,4.40901 4.9892,9.06574 -0.9873,1.84478 -2.39057,1.93426 -30.33334,1.93426 -16.11398,0 -29.59815,-0.3 -29.96481,-0.66667 z m 102,0 C 275.3,168.96667 275,166.9575 275,164.86852 275,160.61398 276.86605,159 281.78504,159 c 5.09821,0 9.16472,-1.97796 9.97099,-4.84993 C 292.16521,152.69253 292.5,126.075 292.5,95 V 38.5 h -15.34019 c -18.24751,0 -18.54359,0.169168 -19.71459,11.264393 -0.39098,3.704584 -1.21361,7.066216 -1.82805,7.470294 -0.61444,0.404078 -3.68884,0.741578 -6.83199,0.75 -4.63617,0.01242 -5.9102,-0.349769 -6.75,-1.918946 -1.51441,-2.829714 -1.33838,-25.270818 0.21482,-27.384785 1.15821,-1.576366 6.06005,-1.682197 66.75,-1.441129 L 374.5,27.5 v 15 15 h -7 -7 l -0.8044,-6 C 357.91329,38.205836 357.6413,38.034802 338.25,38.014742 L 324,38 l 0.0596,54.25 c 0.057,51.86704 0.48724,62.69685 2.57374,64.78335 0.51457,0.51457 3.77617,1.32405 7.248,1.79886 6.63135,0.90689 8.07811,2.01701 8.10334,6.21779 0.0295,4.9071 -0.26537,4.95 -34.01802,4.95 -17.39834,0 -31.93334,-0.3 -32.3,-0.66667 z M 82.565613,139.23004 C 21.807776,108.51507 25.090208,110.72695 25.090208,100.5 c 0,-10.018132 -3.207118,-7.86272 57.428276,-38.595891 30.239836,-15.327119 55.949996,-27.875729 57.133686,-27.8858 3.88493,-0.03305 5.63575,9.803187 3.26481,18.341935 l -1.07187,3.860244 -44.422554,21.851006 C 72.99015,90.089548 53,100.28553 53,100.72923 c 0,0.4437 18.5625,9.78521 41.25,20.7589 22.6875,10.9737 42.70189,20.7913 44.47643,21.8169 3.66065,2.11566 5.31859,6.50887 5.16831,13.69497 -0.14692,7.02608 -1.13106,9.4651 -3.93429,9.75054 -1.58389,0.16128 -22.03124,-9.64311 -57.394837,-27.5205 z m 571.392707,23.61518 c -1.54953,-5.75451 -0.35468,-15.17304 2.22279,-17.52133 1.10104,-1.00314 21.34992,-11.30634 44.99751,-22.89599 23.6476,-11.58966 43.00163,-21.47103 43.00896,-21.95862 0.007,-0.487577 -19.67111,-10.365108 -43.72987,-21.950063 C 671.49605,64.573385 656.20067,56.681784 655.19391,55.165518 653.16488,52.109644 652.93235,37.997539 654.87244,35.656253 655.62729,34.745314 656.83336,34 657.5526,34 c 0.71924,0 26.26424,12.611316 56.76665,28.025147 49.01072,24.766656 55.60173,28.36986 56.68698,30.989904 1.51074,3.647239 0.92116,15.162589 -0.88792,17.342399 C 768.12757,112.75614 660.29284,167 657.51506,167 c -2.01326,0 -2.63287,-0.7238 -3.55674,-4.15478 z M 480.83087,117.75 c -2.15047,-1.73269 -2.71547,-3.85345 -1.73169,-6.5 1.19598,-3.2174 7.59735,-3.24458 8.7838,-0.0373 1.18288,3.19764 0.20109,5.80484 -2.58477,6.86402 -2.99095,1.13716 -2.61652,1.16454 -4.46734,-0.32672 z M 406.75908,88.577067 c -5.4727,-1.953227 -8.43689,-4.149608 -11.72374,-8.686977 -3.86258,-5.332142 -5.40107,-12.700405 -4.84881,-23.222337 0.36532,-6.960314 1.00453,-9.660422 3.39219,-14.329126 5.44782,-10.652361 16.42951,-15.997786 27.68926,-13.477965 7.88645,1.76491 11.73202,4.438327 11.73202,8.156024 0,4.050013 -1.89464,4.568042 -6.58523,1.800524 -5.29916,-3.12658 -15.00846,-3.242873 -19.08802,-0.228626 -4.0514,2.993437 -7.38218,9.548366 -8.02713,15.797286 -2.22692,21.576776 9.60966,32.703501 26.65323,25.054802 5.19057,-2.32939 6.36123,-2.554154 7.10776,-1.364681 4.56294,7.270257 -14.27757,14.792468 -26.30153,10.501076 z m 44.27067,-0.09783 C 442.91352,84.812213 439.66852,78.846385 439.61848,67.5 c -0.0381,-8.636602 1.81476,-13.787321 6.54785,-18.202272 8.78175,-8.191481 25.20927,-6.731683 31.51753,2.800739 2.59572,3.922396 2.81614,5.004763 2.81614,13.828504 0,11.361479 -1.83935,15.920649 -8.25045,20.450209 -5.09971,3.603044 -15.59627,4.642847 -21.2198,2.10206 z m 14.61317,-7.114085 c 4.68844,-2.22481 6.54114,-6.239868 6.5915,-14.284699 0.0703,-11.236332 -4.86255,-16.930048 -13.64717,-15.75204 -5.76336,0.77286 -9.21851,4.872122 -10.10814,11.992498 -1.18674,9.498293 1.16132,15.747083 6.84637,18.219954 4.18927,1.822242 6.17845,1.788365 10.31744,-0.175713 z m 32.94549,6.368395 c -5.61471,-3.206046 -8.00479,-8.387687 -8.43046,-18.277092 -0.19042,-4.423948 0.15797,-9.915987 0.77421,-12.204531 C 493.90958,46.194646 505.56598,40.80368 515.26118,46 c 2.05237,1.1 3.94346,2 4.20244,2 0.25898,0 0.59812,-5.0625 0.75363,-11.25 L 520.5,25.5 h 3.5 3.5 l 0.26405,31.75 0.26404,31.75 h -3.10766 c -2.26667,0 -3.24921,-0.541245 -3.63068,-2 -0.66867,-2.556995 -1.17893,-2.518318 -6.43768,0.487955 -5.48435,3.135245 -11.05571,3.219377 -16.26366,0.245595 z m 12.94446,-6.182836 c 1.90774,-0.797108 4.59329,-2.662818 5.96788,-4.146023 C 519.72102,75.008983 520,73.839805 520,66.930703 c 0,-6.863579 -0.29755,-8.130865 -2.53273,-10.787226 -9.49995,-11.29005 -21.58899,-1.072614 -18.50023,15.636049 1.21191,6.555802 3.99097,10.073208 8.81508,11.157088 0.15516,0.03486 1.843,-0.588793 3.75075,-1.3859 z m 40.25849,7.520301 c -8.4951,-2.747163 -13.13746,-10.358264 -13.10226,-21.481027 0.0251,-7.946125 1.91032,-13.48487 6.11395,-17.963149 8.32612,-8.870121 24.38799,-7.079233 29.89421,3.333184 2.52479,4.774447 3.12265,12.820068 1.10274,14.839977 -0.81303,0.813033 -5.48889,1.2 -14.5,1.2 H 548 v 3.484223 c 0,2.406031 0.86937,4.457213 2.80939,6.628478 3.48135,3.896309 10.08797,4.82471 17.66957,2.483036 2.75958,-0.852331 5.36039,-1.156383 5.83467,-0.682111 1.72676,1.726769 0.19328,5.564337 -2.79398,6.991977 -3.52435,1.684317 -15.8687,2.413537 -19.72829,1.165412 z M 568,59.95034 c 0,-2.831952 -2.59031,-7.579148 -4.5448,-8.329159 C 562.56487,51.279532 560.02877,51 557.81942,51 c -3.2043,0 -4.60396,0.628338 -6.91821,3.105755 C 549.30554,55.813921 548,58.288921 548,59.605755 548,61.971799 548.11779,62 558,62 c 9.41409,0 10,-0.120091 10,-2.04966 z"
       id="path4533"
       inkscape:connector-curvature="0" />
    <path
       style="fill:#989999"
       d="M 572.39801,176.59482 C 571.89217,175.27663 632.05412,30.951324 634.23549,28.25 c 1.19495,-1.479781 14.34164,-1.74323 15.23039,-0.305205 0.72718,1.176604 -61.08625,148.194605 -62.75364,149.254215 -2.23515,1.42041 -13.72339,0.9355 -14.31423,-0.60419 z M 397.2,168.8 c -1.87268,-1.87268 -1.69572,-55.1437 0.18837,-56.70736 0.93508,-0.77604 5.75087,-1.06089 14.75,-0.87244 12.93309,0.27083 13.37173,0.35083 13.67655,2.49445 0.39284,2.76267 -1.25748,3.20089 -13.31492,3.53555 l -9,0.2498 v 10 10 L 414,138 c 9.66667,0.46032 10.5,0.65873 10.5,2.5 0,1.82347 -0.75026,2.02214 -8.5,2.25078 -14.03893,0.4142 -13,-0.63019 -13,13.06827 C 403,167.34356 402.34436,170 399.5,170 c -0.605,0 -1.64,-0.54 -2.3,-1.2 z m 41.11382,-0.75023 C 434.37175,165.64612 433,163.18502 433,158.51608 c 0,-8.3001 5.30756,-12.21367 18.11446,-13.35683 L 458.5,144.5 l -0.0855,-4.23953 c -0.19247,-9.54018 -7.88126,-11.48564 -22.16446,-5.60817 -0.7955,0.32734 -1.25,-0.35759 -1.25,-1.88375 0,-4.80781 13.42803,-8.3144 21.46344,-5.60497 2.49693,0.84193 4.80949,2.59367 6.25,4.7343 2.15577,3.20352 2.28656,4.35572 2.28656,20.14301 0,13.92639 -0.25129,16.84156 -1.49284,17.31799 -0.83185,0.31921 -2.38038,-0.3798 -3.4973,-1.57867 l -2.00445,-2.15153 -3.88886,2.18566 c -4.90751,2.75817 -11.50417,2.85645 -15.80273,0.23543 z m 17.15138,-6.15336 c 2.9168,-2.56098 3.5348,-3.78856 3.5348,-7.02144 0,-3.17517 -0.45921,-4.12708 -2.42244,-5.02158 -3.89396,-1.77421 -11.42209,-0.16271 -14.74014,3.15534 -3.37204,3.37205 -3.56975,5.79055 -0.76484,9.35641 3.10457,3.94682 9.60469,3.73513 14.39262,-0.46873 z m 25.6357,6.72517 c -0.79516,-0.95812 -1.06119,-7.43771 -0.87245,-21.25 L 480.5,127.5 h 3 3 l 0.27155,19.87158 C 487.04336,167.26265 486.6476,170 483.5,170 c -0.69031,0 -1.76991,-0.62029 -2.3991,-1.37842 z m 22,0 c -0.79516,-0.95812 -1.06119,-7.43771 -0.87245,-21.25 L 502.5,127.5 h 2.5 c 1.83124,0 2.58548,0.60188 2.81955,2.25 0.42694,3.00615 1.74877,2.8362 5.83323,-0.75 5.10872,-4.48551 11.89249,-3.83967 11.18471,1.06482 -0.29239,2.02615 -0.92547,2.35286 -4.73785,2.44504 -3.83267,0.0927 -4.83058,0.61494 -7.73513,4.04827 l -3.33476,3.94187 -0.0149,13.55 c -0.0147,13.39184 -0.59088,15.95 -3.59244,15.95 -0.64765,0 -1.69235,-0.62029 -2.32154,-1.37842 z m -328.90913,-3.84924 0.30823,-4.2576 4.91258,-0.69773 c 2.90765,-0.41297 5.7645,-1.54965 7,-2.78515 2.06725,-2.06725 2.08742,-2.6328 2.08742,-58.53186 0,-55.899062 -0.0202,-56.464614 -2.08742,-58.531864 -1.2355,-1.235501 -4.09235,-2.372178 -7,-2.78515 L 174.5,36.485257 174.19177,32.227658 173.88354,27.97006 203.69177,28.23503 233.5,28.5 v 3.391014 c 0,3.748159 -1.13042,4.705248 -6.57627,5.567916 -5.54771,0.878805 -7.15443,2.61263 -8.01127,8.645049 -0.99833,7.028511 -0.99833,97.763531 0,104.792041 0.85684,6.03242 2.46356,7.76624 8.01127,8.64505 5.44585,0.86267 6.57627,1.81976 6.57627,5.56792 V 168.5 l -29.80823,0.26497 -29.80823,0.26497 z m 102.20768,2.82622 c -0.30173,-0.78629 -0.40254,-2.70513 -0.22402,-4.26409 0.29732,-2.59653 0.74732,-2.88607 5.36066,-3.44919 7.13997,-0.87153 9.29129,-1.71539 10.71497,-4.203 0.94753,-1.65562 1.32073,-15.69523 1.54641,-58.175075 0.16361,-30.796037 0.0346,-57.039974 -0.28659,-58.31986 L 292.92683,36.86028 277.37447,37.18014 261.8221,37.5 259.41105,40.305764 C 257.65718,42.346766 257,44.30514 257,47.490664 c 0,2.408525 -0.43886,5.533432 -0.97525,6.944236 C 255.1273,56.795368 254.57039,57 249.0438,57 c -7.3365,0 -7.23738,0.239344 -6.8334,-16.5 l 0.2896,-12 65.43647,-0.257304 c 51.68722,-0.203241 65.60419,0.0069 66.23469,1 0.92961,1.464263 1.11923,23.836987 0.22185,26.175517 C 373.92737,56.631667 372.30179,57 367.41206,57 c -7.18186,0 -6.92425,0.328217 -7.71794,-9.833448 -0.29233,-3.742779 -1.06208,-5.979609 -2.58094,-7.5 C 355.07678,37.628101 354.01908,37.5 339.2244,37.5 H 323.5 L 323.19673,88 c -0.1668,27.775 -0.0139,54.21254 0.33978,58.75008 0.8207,10.52936 2.0339,12.14629 9.70656,12.93668 6.45626,0.66508 8.04678,1.92479 7.57919,6.00277 L 340.5,168.5 l -31.77598,0.26408 c -26.80026,0.22273 -31.86188,0.0402 -32.32457,-1.16552 z M 83.744423,138.59754 C 54.178856,123.64847 29.333146,110.761 28.531733,109.95871 26.249933,107.67441 25.501572,98.128668 27.272085,93.891234 28.700393,90.472813 31.152309,89.118252 83.951582,62.57865 114.30422,47.321871 139.7821,35.086141 140.5691,35.388141 c 2.26399,0.868777 2.00327,16.729321 -0.3191,19.411197 -0.9625,1.111498 -21.45206,11.607058 -45.532365,23.323466 -29.090941,14.154363 -43.687616,21.761924 -43.5,22.671526 0.155301,0.75293 19.857365,10.8105 43.782365,22.35016 23.925,11.53966 44.304,21.92314 45.28666,23.07441 1.47236,1.72498 1.73623,3.605 1.5,10.68715 -0.25941,7.77693 -0.4768,8.60715 -2.28666,8.73278 -1.1,0.0764 -26.19001,-12.09222 -55.755577,-27.04129 z M 655.66667,165.33333 C 655.3,164.96667 655,160.94881 655,156.40476 c 0,-6.35647 0.38192,-8.64382 1.65599,-9.91789 0.91079,-0.91079 21.40313,-11.37426 45.53852,-23.25216 29.10668,-14.32444 43.78538,-22.05647 43.59401,-22.96323 -0.15869,-0.751892 -19.82855,-10.795982 -43.7108,-22.320203 -23.88226,-11.524221 -44.24476,-21.697457 -45.25,-22.607191 -1.48644,-1.345205 -1.82486,-3.165609 -1.81241,-9.749074 0.008,-4.452256 0.46051,-8.770012 1.00464,-9.595012 0.82581,-1.252084 10.17196,3.127773 56.54818,26.5 30.55737,15.4 56.09278,28.631663 56.74536,29.403695 0.6794,0.803757 1.18651,4.531625 1.18651,8.722225 0,6.01234 -0.35695,7.66094 -2,9.23707 C 766.1005,112.16478 659.96345,166 657.82495,166 c -0.82039,0 -1.79162,-0.3 -2.15828,-0.66667 z M 480.18154,113.81846 C 480.46462,110.86872 480.83333,110.5 483.5,110.5 c 2.66667,0 3,0.33333 3,3 0,2.66667 -0.36872,3.03538 -3.31846,3.31846 -3.20804,0.30787 -3.30787,0.20804 -3,-3 z M 407.33975,87.565105 c -6.17021,-1.929712 -9.60517,-4.801405 -12.8484,-10.74151 -2.4664,-4.517298 -2.96849,-6.713496 -3.31507,-14.500447 -0.49682,-11.16246 1.43995,-18.346531 6.55807,-24.325904 6.11066,-7.138923 14.42569,-9.936212 23.76963,-7.996419 C 427.98764,31.346829 432,34.241315 432,37.57258 432,38.907661 431.81968,40 431.5993,40 c -0.22039,0 -2.80789,-1.120604 -5.75,-2.490231 -9.18063,-4.273809 -16.90836,-2.900997 -22.6105,4.016698 -3.95112,4.793384 -5.61431,11.720571 -5.0237,20.923605 0.61485,9.58062 3.61088,15.205768 9.74679,18.299928 5.77821,2.913784 11.24066,2.834456 17.88741,-0.259769 C 428.79141,79.120604 431.37891,78 431.5993,78 431.81968,78 432,79.092339 432,80.42742 c 0,3.257636 -3.92828,6.177009 -10.0898,7.498418 -6.30206,1.351551 -9.3356,1.276447 -14.57045,-0.360733 z m 45.57382,0.479171 c -6.7379,-2.041923 -10.98826,-7.779149 -12.40839,-16.749129 -0.84905,-5.362798 0.97646,-14.216591 3.81098,-18.483469 5.86567,-8.829728 22.76049,-10.561108 29.93764,-3.068007 7.95674,8.307015 7.75044,26.479112 -0.38553,33.958601 -5.04821,4.640881 -13.90957,6.477035 -20.9547,4.342004 z m 12.54077,-5.46075 c 1.86455,-0.779061 4.16073,-2.592603 5.10261,-4.030093 4.39784,-6.711964 3.65001,-19.803785 -1.42107,-24.877582 -5.57404,-5.577026 -15.53246,-4.266274 -19.67982,2.590307 -2.7582,4.559973 -2.76246,16.900793 -0.007,21.455153 3.42761,5.666151 9.5965,7.54014 16.00568,4.862215 z m 34.96085,5.049549 c -6.87501,-3.114811 -9.84597,-10.261217 -9.24214,-22.231192 0.65937,-13.07124 5.22718,-19.253488 14.91324,-20.184196 3.71702,-0.357159 5.66044,0.02535 8.4294,1.659069 6.20498,3.661026 6.38637,3.413992 6.70156,-9.126756 L 521.5,26.5 524.25,26.183578 527,25.867155 V 56.933578 88 h -2.5 c -1.808,0 -2.5,-0.537268 -2.5,-1.940983 0,-3.161931 -1.68386,-3.296605 -5.94667,-0.475611 -4.76089,3.150609 -11.31274,4.00935 -15.63814,2.049669 z m 12.27322,-5.101569 c 1.20363,-0.344953 3.56613,-2.196317 5.25,-4.114143 C 520.83095,75.122942 521,74.46942 521,66.581566 v -8.348841 l -3.88761,-3.512222 c -2.13819,-1.931723 -5.25534,-3.812627 -6.92701,-4.179787 -4.30536,-0.945616 -8.96907,1.729741 -10.93986,6.275702 -2.18745,5.045705 -2.09933,16.653029 0.15948,21.009066 1.74569,3.366493 6.83509,6.393345 9.595,5.706504 0.825,-0.205312 2.48479,-0.655529 3.68841,-1.000482 z M 550.5,87.17814 c -7.91674,-3.78876 -10.62376,-8.794803 -10.66664,-19.725623 -0.043,-10.952393 3.15665,-17.123187 10.66664,-20.571786 7.31669,-3.359835 16.50493,-1.949535 21.11148,3.24039 4.20815,4.741081 6.04266,16.030149 2.80673,17.27189 C 573.54823,67.726855 567.07137,68 560.0252,68 c -9.96415,0 -12.92879,0.306384 -13.34027,1.378665 -0.98293,2.561497 1.19374,9.106988 3.76666,11.326762 4.34767,3.750918 9.23005,4.009319 21.52467,1.139199 0.87348,-0.203911 1.60672,0.500017 1.79578,1.723999 0.44062,2.852614 -3.5704,4.510358 -12.27204,5.072003 -5.50898,0.355576 -7.85201,0.04406 -11,-1.462488 z M 569,59.423077 C 569,53.951959 564.58671,50 558.47692,50 c -3.98552,0 -5.17955,0.502632 -8.07692,3.4 -2.4043,2.404301 -3.4,4.307843 -3.4,6.5 V 63 h 11 11 z"
       id="path4531"
       inkscape:connector-curvature="0" />
    <path
       style="fill:#6e8db4"
       d="M 573.55007,176.08102 C 572.97334,175.14785 631.8821,34.379693 634.57754,30.25 635.82978,28.331435 636.92654,28 642.02305,28 646.773,28 648,28.320452 648,29.560977 648,31.288573 588.29277,173.75498 586.73263,175.75 c -1.13738,1.45442 -12.3148,1.73509 -13.18256,0.33102 z M 175.18549,164.78757 c 0.28685,-2.9581 0.68415,-3.30592 4.51797,-3.95535 6.15997,-1.04346 8.08743,-2.41789 9.24721,-6.59399 1.41293,-5.08762 1.41293,-106.388837 0,-111.476463 -1.15978,-4.176099 -3.08724,-5.550526 -9.24721,-6.59399 -3.83382,-0.649428 -4.23112,-0.997248 -4.51797,-3.955351 l -0.31451,-3.243309 28.81451,0.265442 L 232.5,29.5 v 2.391014 c 0,2.677822 -1.23794,3.53158 -6.90417,4.761524 -2.4834,0.539059 -4.66688,1.874911 -6,3.670792 C 217.5273,43.10988 217.5,43.867784 217.5,98.5 c 0,54.63222 0.0273,55.39012 2.09583,58.17667 1.33312,1.79588 3.5166,3.13173 6,3.67079 5.66623,1.22995 6.90417,2.0837 6.90417,4.76153 V 167.5 l -28.81451,0.26544 -28.81451,0.26544 z m 102.00008,-0.0232 c 0.30047,-3.11942 0.53956,-3.29182 5.38532,-3.8833 6.03447,-0.73657 8.93252,-2.13824 10.65619,-5.15396 0.9793,-1.71337 1.34042,-15.25962 1.56555,-58.72708 0.16095,-31.075 0.0399,-57.5125 -0.26905,-58.75 C 293.97334,36.045823 293.66633,36 279.44883,36 258.49412,36 256.89964,36.926085 255.42585,49.952637 L 254.73128,56.09179 249.11564,55.795895 243.5,55.5 v -13 -13 L 308.25,29.242706 373,28.985411 V 42.492706 56 h -5.43873 -5.43872 l -0.58153,-4.75 C 359.72161,36.388637 358.88179,35.86422 337.5,36.237872 L 322.5,36.5 v 58 c 0,31.9 0.34281,59.22451 0.76181,60.72114 0.96311,3.44018 3.27607,4.66815 10.49009,5.56927 5.55853,0.69434 5.7481,0.81682 5.7481,3.7138 V 167.5 l -31.31443,0.26434 -31.31443,0.26433 0.31443,-3.26433 z M 83.744423,138.59754 C 54.178856,123.64847 29.333146,110.761 28.531733,109.95871 26.249933,107.67441 25.501572,98.128668 27.272085,93.891234 28.700393,90.472813 31.152309,89.118252 83.951582,62.57865 114.30422,47.321871 139.7821,35.086141 140.5691,35.388141 c 2.26399,0.868777 2.00327,16.729321 -0.3191,19.411197 -0.9625,1.111498 -21.45206,11.607058 -45.532365,23.323466 -29.090941,14.154363 -43.687616,21.761924 -43.5,22.671526 0.155301,0.75293 19.857365,10.8105 43.782365,22.35016 23.925,11.53966 44.304,21.92314 45.28666,23.07441 1.47236,1.72498 1.73623,3.605 1.5,10.68715 -0.25941,7.77693 -0.4768,8.60715 -2.28666,8.73278 -1.1,0.0764 -26.19001,-12.09222 -55.755577,-27.04129 z M 655.66667,165.33333 C 655.3,164.96667 655,160.94881 655,156.40476 c 0,-6.35647 0.38192,-8.64382 1.65599,-9.91789 0.91079,-0.91079 21.40313,-11.37426 45.53852,-23.25216 29.10668,-14.32444 43.78538,-22.05647 43.59401,-22.96323 -0.15869,-0.751892 -19.82855,-10.795982 -43.7108,-22.320203 -23.88226,-11.524221 -44.24476,-21.697457 -45.25,-22.607191 -1.48644,-1.345205 -1.82486,-3.165609 -1.81241,-9.749074 0.008,-4.452256 0.46051,-8.770012 1.00464,-9.595012 0.82581,-1.252084 10.17196,3.127773 56.54818,26.5 30.55737,15.4 56.09278,28.631663 56.74536,29.403695 0.6794,0.803757 1.18651,4.531625 1.18651,8.722225 0,6.01234 -0.35695,7.66094 -2,9.23707 C 766.1005,112.16478 659.96345,166 657.82495,166 c -0.82039,0 -1.79162,-0.3 -2.15828,-0.66667 z"
       id="path4529"
       inkscape:connector-curvature="0" />
    <path
       style="fill:#4b72a2"
       d="M 573.55007,176.08102 C 572.97334,175.14785 631.8821,34.379693 634.57754,30.25 635.82978,28.331435 636.92654,28 642.02305,28 646.773,28 648,28.320452 648,29.560977 648,31.288573 588.29277,173.75498 586.73263,175.75 c -1.13738,1.45442 -12.3148,1.73509 -13.18256,0.33102 z M 175.18549,164.78757 c 0.28685,-2.9581 0.68415,-3.30592 4.51797,-3.95535 6.15997,-1.04346 8.08743,-2.41789 9.24721,-6.59399 1.41293,-5.08762 1.41293,-106.388837 0,-111.476463 -1.15978,-4.176099 -3.08724,-5.550526 -9.24721,-6.59399 -3.83382,-0.649428 -4.23112,-0.997248 -4.51797,-3.955351 l -0.31451,-3.243309 28.81451,0.265442 L 232.5,29.5 v 2.391014 c 0,2.677822 -1.23794,3.53158 -6.90417,4.761524 -2.4834,0.539059 -4.66688,1.874911 -6,3.670792 C 217.5273,43.10988 217.5,43.867784 217.5,98.5 c 0,54.63222 0.0273,55.39012 2.09583,58.17667 1.33312,1.79588 3.5166,3.13173 6,3.67079 5.66623,1.22995 6.90417,2.0837 6.90417,4.76153 V 167.5 l -28.81451,0.26544 -28.81451,0.26544 z m 102.00008,-0.0232 c 0.30047,-3.11942 0.53956,-3.29182 5.38532,-3.8833 6.03447,-0.73657 8.93252,-2.13824 10.65619,-5.15396 0.9793,-1.71337 1.34042,-15.25962 1.56555,-58.72708 0.16095,-31.075 0.0399,-57.5125 -0.26905,-58.75 C 293.97334,36.045823 293.66633,36 279.44883,36 258.49412,36 256.89964,36.926085 255.42585,49.952637 L 254.73128,56.09179 249.11564,55.795895 243.5,55.5 v -13 -13 L 308.25,29.242706 373,28.985411 V 42.492706 56 h -5.43873 -5.43872 l -0.58153,-4.75 C 359.72161,36.388637 358.88179,35.86422 337.5,36.237872 L 322.5,36.5 v 58 c 0,31.9 0.34281,59.22451 0.76181,60.72114 0.96311,3.44018 3.27607,4.66815 10.49009,5.56927 5.55853,0.69434 5.7481,0.81682 5.7481,3.7138 V 167.5 l -31.31443,0.26434 -31.31443,0.26433 0.31443,-3.26433 z M 83.5,137.54095 C 44.813083,117.9196 29.149711,109.49331 28.264742,107.82653 26.802277,105.07207 26.614768,97.143437 27.930262,93.683424 28.678715,91.714843 39.534037,85.838951 83.473541,63.618324 113.5107,48.428246 138.72169,36 139.49797,36 c 2.97597,0 3.10283,16.426561 0.14582,18.880667 -0.67638,0.561347 -21.01044,10.690691 -45.186789,22.509652 C 61.196198,93.650347 50.5,99.309485 50.5,100.64706 c 0,1.33981 10.640952,6.93416 43.957603,23.11018 24.176677,11.73835 44.510737,21.80152 45.186787,22.36259 1.58441,1.31495 2.77547,10.82858 1.92395,15.36759 -0.45178,2.40819 -1.19493,3.50139 -2.36365,3.477 C 138.26711,164.94485 113.2,152.60429 83.5,137.54095 Z m 572.15224,23.68572 c -0.56272,-3.51903 0.48469,-13.69694 1.51565,-14.7279 0.25304,-0.25304 20.60199,-10.36768 45.21989,-22.47697 35.33254,-17.37972 44.69067,-22.37593 44.43152,-23.72156 -0.22122,-1.148718 -14.62434,-8.609901 -44.16339,-22.877761 -24.1093,-11.645204 -44.51086,-21.84886 -45.33679,-22.674792 -1.84952,-1.849518 -2.41018,-16.051532 -0.70126,-17.763534 1.4465,-1.449105 110.75274,52.971285 112.3354,55.928521 0.57571,1.075714 1.04674,4.705881 1.04674,8.067036 0,5.0688 -0.39798,6.50918 -2.33323,8.44443 C 765.20102,111.88989 660.0804,165 657.6657,165 c -0.85771,0 -1.64645,-1.47813 -2.01346,-3.77333 z"
       id="path4527"
       inkscape:connector-curvature="0" />
    <path
       style="fill:#3a659a"
       d="M 573.55007,176.08102 C 572.97334,175.14785 631.8821,34.379693 634.57754,30.25 635.82978,28.331435 636.92654,28 642.02305,28 646.773,28 648,28.320452 648,29.560977 648,31.288573 588.29277,173.75498 586.73263,175.75 c -1.13738,1.45442 -12.3148,1.73509 -13.18256,0.33102 z M 175.18549,164.78757 c 0.28685,-2.9581 0.68415,-3.30592 4.51797,-3.95535 6.15997,-1.04346 8.08743,-2.41789 9.24721,-6.59399 1.41293,-5.08762 1.41293,-106.388837 0,-111.476463 -1.15978,-4.176099 -3.08724,-5.550526 -9.24721,-6.59399 -3.83382,-0.649428 -4.23112,-0.997248 -4.51797,-3.955351 l -0.31451,-3.243309 28.81451,0.265442 L 232.5,29.5 v 2.391014 c 0,2.677822 -1.23794,3.53158 -6.90417,4.761524 -2.4834,0.539059 -4.66688,1.874911 -6,3.670792 C 217.5273,43.10988 217.5,43.867784 217.5,98.5 c 0,54.63222 0.0273,55.39012 2.09583,58.17667 1.33312,1.79588 3.5166,3.13173 6,3.67079 5.66623,1.22995 6.90417,2.0837 6.90417,4.76153 V 167.5 l -28.81451,0.26544 -28.81451,0.26544 z m 102.00008,-0.0232 c 0.30047,-3.11942 0.53956,-3.29182 5.38532,-3.8833 6.03447,-0.73657 8.93252,-2.13824 10.65619,-5.15396 0.9793,-1.71337 1.34042,-15.25962 1.56555,-58.72708 0.16095,-31.075 0.0399,-57.5125 -0.26905,-58.75 C 293.97334,36.045823 293.66633,36 279.44883,36 258.49412,36 256.89964,36.926085 255.42585,49.952637 L 254.73128,56.09179 249.11564,55.795895 243.5,55.5 v -13 -13 L 308.25,29.242706 373,28.985411 V 42.492706 56 h -5.43873 -5.43872 l -0.58153,-4.75 C 359.72161,36.388637 358.88179,35.86422 337.5,36.237872 L 322.5,36.5 v 58 c 0,31.9 0.34281,59.22451 0.76181,60.72114 0.96311,3.44018 3.27607,4.66815 10.49009,5.56927 5.55853,0.69434 5.7481,0.81682 5.7481,3.7138 V 167.5 l -31.31443,0.26434 -31.31443,0.26433 0.31443,-3.26433 z M 83.547551,136.58898 C 49.438265,119.27118 29.327622,108.51674 28.867837,107.34825 27.967065,105.05906 27.821552,97.267572 28.623685,94.275242 29.09658,92.511123 40.499303,86.335995 83.695638,64.451104 113.65721,49.271445 138.80769,37.095963 139.58561,37.394477 c 1.6286,0.624952 1.99947,10.936443 0.53216,14.795767 -0.69037,1.815798 -10.4225,6.978693 -44.750001,23.739875 C 71.240496,87.710807 50.9375,97.776003 50.25,98.29722 c -3.798738,2.87996 -1.467226,4.27571 43.855332,26.25386 36.816538,17.85335 45.277658,22.32606 46.043088,24.33929 1.48086,3.89496 0.65721,14.53845 -1.14842,14.84031 -0.825,0.13792 -25.7786,-12.07584 -55.452449,-27.1417 z M 656.38966,161.4164 c -0.81163,-3.23381 0.19927,-12.21617 1.55928,-13.85487 0.55995,-0.6747 21.0382,-11.07045 45.50722,-23.10166 24.46903,-12.03122 44.7412,-22.5318 45.04927,-23.33462 0.30808,-0.80283 0.20307,-1.816749 -0.23334,-2.253161 C 747.83568,98.435677 727.68342,88.5575 703.48931,76.920584 679.29519,65.283668 658.88022,55.180126 658.1227,54.468268 c -1.62641,-1.528389 -2.6635,-14.330733 -1.31983,-16.292589 0.70176,-1.024612 13.35716,4.901555 55.92053,26.186005 30.84351,15.423755 55.29098,28.233394 55.64505,29.156108 1.36927,3.568239 0.66302,13.224118 -1.11845,15.291648 C 765.57202,110.75687 660.26802,164 658.09439,164 c -0.58096,0 -1.34808,-1.16262 -1.70473,-2.5836 z"
       id="path4525"
       inkscape:connector-curvature="0" />
    <path
       style="fill:#646464"
       d="M 573.55007,176.08102 C 572.97334,175.14785 631.8821,34.379693 634.57754,30.25 635.82978,28.331435 636.92654,28 642.02305,28 646.773,28 648,28.320452 648,29.560977 648,31.288573 588.29277,173.75498 586.73263,175.75 c -1.13738,1.45442 -12.3148,1.73509 -13.18256,0.33102 z M 175.18549,164.78757 c 0.28685,-2.9581 0.68415,-3.30592 4.51797,-3.95535 6.15997,-1.04346 8.08743,-2.41789 9.24721,-6.59399 1.41293,-5.08762 1.41293,-106.388837 0,-111.476463 -1.15978,-4.176099 -3.08724,-5.550526 -9.24721,-6.59399 -3.83382,-0.649428 -4.23112,-0.997248 -4.51797,-3.955351 l -0.31451,-3.243309 28.81451,0.265442 L 232.5,29.5 v 2.391014 c 0,2.677822 -1.23794,3.53158 -6.90417,4.761524 -2.4834,0.539059 -4.66688,1.874911 -6,3.670792 C 217.5273,43.10988 217.5,43.867784 217.5,98.5 c 0,54.63222 0.0273,55.39012 2.09583,58.17667 1.33312,1.79588 3.5166,3.13173 6,3.67079 5.66623,1.22995 6.90417,2.0837 6.90417,4.76153 V 167.5 l -28.81451,0.26544 -28.81451,0.26544 z m 102.00008,-0.0232 c 0.30047,-3.11942 0.53956,-3.29182 5.38532,-3.8833 6.03447,-0.73657 8.93252,-2.13824 10.65619,-5.15396 0.9793,-1.71337 1.34042,-15.25962 1.56555,-58.72708 0.16095,-31.075 0.0399,-57.5125 -0.26905,-58.75 C 293.97334,36.045823 293.66633,36 279.44883,36 258.49412,36 256.89964,36.926085 255.42585,49.952637 L 254.73128,56.09179 249.11564,55.795895 243.5,55.5 v -13 -13 L 308.25,29.242706 373,28.985411 V 42.492706 56 h -5.43873 -5.43872 l -0.58153,-4.75 C 359.72161,36.388637 358.88179,35.86422 337.5,36.237872 L 322.5,36.5 v 58 c 0,31.9 0.34281,59.22451 0.76181,60.72114 0.96311,3.44018 3.27607,4.66815 10.49009,5.56927 5.55853,0.69434 5.7481,0.81682 5.7481,3.7138 V 167.5 l -31.31443,0.26434 -31.31443,0.26433 0.31443,-3.26433 z"
       id="path4523"
       inkscape:connector-curvature="0" />
    <path
       style="fill:#ce1212"
       d="M 573.55007,176.08102 C 572.97334,175.14785 631.8821,34.379693 634.57754,30.25 635.82978,28.331435 636.92654,28 642.02305,28 646.773,28 648,28.320452 648,29.560977 648,31.288573 588.29277,173.75498 586.73263,175.75 c -1.13738,1.45442 -12.3148,1.73509 -13.18256,0.33102 z"
       id="path4521"
       inkscape:connector-curvature="0" />
  </g>
  <text
     xml:space="preserve"
     style="font-style:normal;font-weight:normal;font-size:220.0370636px;line-height:1.25;font-family:sans-serif;letter-spacing:0px;word-spacing:0px;fill:#000000;fill-opacity:1;stroke:none;stroke-width:5.50092649"
     x="-20.706573"
     y="161.7964"
     id="text3684"><tspan
       sodipodi:role="line"
       id="tspan3682"
       x="-20.706573"
       y="356.47763"
       style="font-style:normal;font-variant:normal;font-weight:normal;font-stretch:normal;font-family:Tinos;-inkscape-font-specification:Tinos;stroke-width:5.50092649" /></text>
</svg>
